<svg width="22" height="22" viewBox="0 0 22 22" fill="none" xmlns="http://www.w3.org/2000/svg">
<g clip-path="url(#clip0_884_4060)">
<path d="M13.7731 7.07227C13.7731 8.63873 12.5016 9.9082 10.9337 9.9082C9.36761 9.9082 8.09814 8.63839 8.09814 7.07227C8.09814 5.50614 9.36761 4.23633 10.9337 4.23633C12.5016 4.23633 13.7731 5.50614 13.7731 7.07227Z" fill="#8FB8EA"/>
<path d="M10.9383 0.179688C9.62584 0.179688 7.79262 0.702875 6.46471 2.03078L8.04184 4.90419C8.38642 4.46556 8.82625 4.11104 9.32805 3.86746C9.82985 3.62389 10.3805 3.49763 10.9383 3.49825C12.1273 3.49825 13.1854 4.05994 13.8595 4.93341L15.4063 1.96478C14.2572 0.709062 12.1964 0.179688 10.9383 0.179688ZM12.107 2.28962H11.3728V3.02319H10.4907V2.28962H9.75646V1.40791H10.4907V0.67125H11.3728V1.40791H12.107V2.28962ZM7.20721 15.0046H7.93356L6.89612 18.5603H15.0021L13.9695 15.0046H14.6965L15.7357 18.5603H18.1209L16.4929 13.1731C16.2386 12.2838 15.1234 10.718 13.1991 10.6706L8.77506 10.6668C6.80709 10.6764 5.66859 12.2728 5.41112 13.1728L3.7515 18.56H6.17046L7.20721 15.0046ZM0.325684 19.694H21.5454V21.7129H0.325684V19.694Z" fill="#8FB8EA"/>
</g>
<defs>
<clipPath id="clip0_884_4060">
<rect width="22" height="22" fill="white"/>
</clipPath>
</defs>
</svg>
