<svg width="18" height="20" viewBox="0 0 18 20" fill="none" xmlns="http://www.w3.org/2000/svg">
<path d="M1 20C0.716667 20 0.479333 19.904 0.288 19.712C0.0966668 19.52 0.000666667 19.2827 0 19V15C0 14.45 0.196 13.9793 0.588 13.588C0.98 13.1967 1.45067 13.0007 2 13H16C16.55 13 17.021 13.196 17.413 13.588C17.805 13.98 18.0007 14.4507 18 15V19C18 19.2833 17.904 19.521 17.712 19.713C17.52 19.905 17.2827 20.0007 17 20H1ZM2 11V8C2 7.45 2.196 6.97933 2.588 6.588C2.98 6.19667 3.45067 6.00067 4 6H8V4.55C7.7 4.35 7.45833 4.10833 7.275 3.825C7.09167 3.54167 7 3.2 7 2.8C7 2.55 7.05 2.304 7.15 2.062C7.25 1.82 7.4 1.59933 7.6 1.4L9 0L10.4 1.4C10.6 1.6 10.75 1.82067 10.85 2.062C10.95 2.30333 11 2.54933 11 2.8C11 3.2 10.9083 3.54167 10.725 3.825C10.5417 4.10833 10.3 4.35 10 4.55V6H14C14.55 6 15.021 6.19567 15.413 6.587C15.805 6.97833 16.0007 7.44933 16 8V11H2Z" fill="#535353"/>
</svg>
