<svg width="20" height="22" viewBox="0 0 20 22" fill="none" xmlns="http://www.w3.org/2000/svg">
<g clip-path="url(#clip0_884_4052)">
<path d="M5.98572 7.42353L6.11405 7.41253C6.16057 7.40759 6.20505 7.39087 6.2433 7.36394L6.24239 7.36486C6.36522 7.78836 6.51555 8.23386 6.70347 8.70044C6.94455 9.31094 7.18197 9.81236 7.4478 10.2964L7.41114 10.223C7.38914 10.5567 7.36255 10.8995 7.32772 11.2314C7.31213 11.4271 7.27241 11.6201 7.20947 11.8061L7.21405 11.7896C7.20305 11.7942 7.18747 13.6963 7.18747 13.6963C7.18813 14.2864 7.38717 14.8591 7.75259 15.3225C8.11801 15.7858 8.6286 16.1129 9.2023 16.251L9.22064 16.2547C9.24568 16.1882 9.29045 16.131 9.34895 16.0907C9.40744 16.0504 9.47685 16.0289 9.54789 16.0292H10.0741C10.1443 16.0301 10.2127 16.0518 10.2708 16.0914C10.3288 16.131 10.3739 16.1868 10.4004 16.2519L10.4013 16.2547C10.9798 16.1205 11.4961 15.7951 11.8669 15.3312C12.2376 14.8673 12.4412 14.292 12.4446 13.6981C12.4446 13.6981 12.4125 11.8034 12.396 11.7905C12.3405 11.6136 12.303 11.4314 12.2841 11.2469L12.2832 11.2332C12.2511 10.8995 12.2301 10.5649 12.1998 10.2249C12.4262 9.81603 12.6636 9.31553 12.8726 8.79944L12.9075 8.70228C13.0954 8.23569 13.2411 7.79111 13.3686 7.36669C13.4063 7.39333 13.4501 7.41004 13.496 7.41528H13.4969L13.6261 7.42628C13.782 7.44278 13.9195 7.31444 13.9323 7.11553L14.0716 5.34544V5.34361C14.0716 5.27238 14.0456 5.20361 13.9985 5.15014C13.9514 5.09667 13.8865 5.06215 13.8159 5.05303H13.7985C13.9218 4.13134 13.8461 3.19393 13.5766 2.30394L13.5886 2.35069C13.33 1.7766 12.9368 1.27336 12.4422 0.883661C11.9477 0.493967 11.3664 0.229325 10.7478 0.112193L10.724 0.108526C10.4239 0.0490525 10.1195 0.0147112 9.81372 0.00585938H9.79447C9.47459 0.0116433 9.15599 0.0478622 8.84297 0.114026L8.87597 0.108526C8.2578 0.223652 7.67614 0.485 7.17956 0.870748C6.68299 1.2565 6.2859 1.75545 6.02147 2.32594L6.01139 2.35069C5.74756 3.2375 5.67722 4.17061 5.80514 5.08694L5.80147 5.05303C5.73064 5.06069 5.66512 5.09419 5.61743 5.14712C5.56974 5.20005 5.54323 5.2687 5.54297 5.33994V5.34636L5.6823 7.11644C5.69514 7.31994 5.83447 7.44278 5.9848 7.42628L5.98572 7.42353Z" fill="#8FB8EA"/>
<path d="M19.6311 19.1383C19.5669 16.3517 19.2883 15.721 19.1379 15.2938C19.0784 15.1224 19.0298 13.9638 17.1158 13.2121C15.9424 12.7501 14.4281 12.7409 13.1466 12.1992V13.7062C13.1456 14.4788 12.8758 15.2271 12.3834 15.8225C11.891 16.418 11.2067 16.8235 10.4479 16.9695L10.4269 16.9732C10.4131 17.0545 10.3713 17.1284 10.3086 17.182C10.246 17.2356 10.1665 17.2655 10.084 17.2665H10.0675V18.4032C10.0675 18.9366 10.2794 19.4481 10.6566 19.8253C11.0338 20.2025 11.5453 20.4143 12.0787 20.4143C12.6121 20.4143 13.1236 20.2025 13.5008 19.8253C13.878 19.4481 14.0899 18.9366 14.0899 18.4032V17.6093C13.813 17.5687 13.5607 17.4281 13.3805 17.214C13.2004 16.9999 13.1049 16.7272 13.1122 16.4475C13.1196 16.1678 13.2291 15.9005 13.4202 15.6961C13.6113 15.4917 13.8707 15.3645 14.1493 15.3384C14.4279 15.3124 14.7064 15.3893 14.9321 15.5547C15.1577 15.7201 15.315 15.9625 15.3741 16.2359C15.4331 16.5094 15.3899 16.7951 15.2526 17.0389C15.1153 17.2827 14.8934 17.4677 14.6289 17.5589L14.6206 17.5617V18.4463C14.6206 19.1207 14.3527 19.7674 13.8758 20.2443C13.399 20.7212 12.7522 20.9891 12.0778 20.9891C11.4034 20.9891 10.7566 20.7212 10.2797 20.2443C9.80285 19.7674 9.53495 19.1207 9.53495 18.4463V18.4004V18.4023V17.2555C9.4564 17.2503 9.38192 17.2187 9.32366 17.1657C9.2654 17.1128 9.22678 17.0417 9.21411 16.964V16.9622C8.45469 16.8173 7.76926 16.4129 7.27525 15.8183C6.78124 15.2236 6.50939 14.4756 6.50628 13.7025V12.1836C5.21928 12.7363 3.69578 12.7473 2.51603 13.2103C0.596528 13.961 0.552528 15.1169 0.493861 15.2911C0.347195 15.7201 0.0648612 16.348 0.000694532 19.1365C-0.0103055 19.5032 0.000694583 20.0651 1.10619 20.5564C3.51336 21.5006 6.61444 21.7939 9.67153 22.0048H9.96486C13.0284 21.7958 16.1249 21.5033 18.5302 20.5564C19.6311 20.0678 19.6412 19.5087 19.6311 19.1383ZM6.17353 18.0017H5.03136V19.1484H4.21553V18.0053H3.07336V17.1895H4.21553V16.0473H5.03136V17.1895H6.17353V18.0017Z" fill="#8FB8EA"/>
<path d="M14.873 16.467C14.8729 16.3034 14.8078 16.1457 14.6921 16.0301C14.5763 15.9145 14.4194 15.8495 14.2558 15.8496C14.0923 15.8497 13.9354 15.9147 13.8198 16.0304C13.7041 16.1461 13.6392 16.3029 13.6392 16.4665C13.6392 16.6301 13.7041 16.787 13.8198 16.9027C13.9354 17.0184 14.0923 17.0834 14.2558 17.0834C14.4194 17.0835 14.5763 17.0186 14.6921 16.903C14.8078 16.7874 14.8729 16.6306 14.873 16.467Z" fill="#8FB8EA"/>
</g>
<defs>
<clipPath id="clip0_884_4052">
<rect width="19.25" height="22" fill="white"/>
</clipPath>
</defs>
</svg>
