<svg width="100" height="100" viewBox="0 0 100 100" fill="none" xmlns="http://www.w3.org/2000/svg">
<path d="M83.3333 91.667V79.167C83.3333 67.3837 83.3333 61.4878 79.6708 57.8295C76.0125 54.167 70.1167 54.167 58.3333 54.167L50 62.5003L41.6667 54.167C29.8833 54.167 23.9875 54.167 20.3292 57.8295C16.6667 61.4878 16.6667 67.3837 16.6667 79.167V91.667M66.6667 54.167V77.0837" stroke="#004396" stroke-width="4" stroke-linecap="round" stroke-linejoin="round"/>
<path d="M35.4167 54.1668V70.8335M35.4167 70.8335C37.6268 70.8335 39.7464 71.7115 41.3092 73.2743C42.872 74.8371 43.75 76.9567 43.75 79.1668V83.3335M35.4167 70.8335C33.2065 70.8335 31.0869 71.7115 29.5241 73.2743C27.9613 74.8371 27.0833 76.9567 27.0833 79.1668V83.3335M64.5833 27.0835V22.9168C64.5833 21.0017 64.2061 19.1054 63.4732 17.336C62.7404 15.5667 61.6662 13.959 60.312 12.6049C58.9578 11.2507 57.3501 10.1765 55.5808 9.44359C53.8115 8.71071 51.9151 8.3335 50 8.3335C48.0849 8.3335 46.1885 8.71071 44.4192 9.44359C42.6499 10.1765 41.0422 11.2507 39.688 12.6049C38.3338 13.959 37.2596 15.5667 36.5268 17.336C35.7939 19.1054 35.4167 21.0017 35.4167 22.9168V27.0835C35.4167 28.9986 35.7939 30.895 36.5268 32.6643C37.2596 34.4336 38.3338 36.0413 39.688 37.3955C41.0422 38.7497 42.6499 39.8239 44.4192 40.5567C46.1885 41.2896 48.0849 41.6668 50 41.6668C51.9151 41.6668 53.8115 41.2896 55.5808 40.5567C57.3501 39.8239 58.9578 38.7497 60.312 37.3955C61.6662 36.0413 62.7404 34.4336 63.4732 32.6643C64.2061 30.895 64.5833 28.9986 64.5833 27.0835Z" stroke="#004396" stroke-width="4" stroke-linecap="round" stroke-linejoin="round"/>
<path d="M69.7917 80.2085C69.7917 81.0373 69.4624 81.8322 68.8764 82.4182C68.2903 83.0043 67.4955 83.3335 66.6667 83.3335C65.8379 83.3335 65.043 83.0043 64.457 82.4182C63.8709 81.8322 63.5417 81.0373 63.5417 80.2085C63.5417 79.3797 63.8709 78.5848 64.457 77.9988C65.043 77.4127 65.8379 77.0835 66.6667 77.0835C67.4955 77.0835 68.2903 77.4127 68.8764 77.9988C69.4624 78.5848 69.7917 79.3797 69.7917 80.2085Z" stroke="#004396" stroke-width="4"/>
</svg>
