<svg width="100" height="100" viewBox="0 0 100 100" fill="none" xmlns="http://www.w3.org/2000/svg">
<path d="M83.3333 91.666V79.166C83.3333 67.3827 83.3333 61.4868 79.6708 57.8285C76.0125 54.166 70.1167 54.166 58.3333 54.166L50 62.4993L41.6667 54.166C29.8833 54.166 23.9875 54.166 20.3292 57.8285C16.6667 61.4868 16.6667 67.3827 16.6667 79.166V91.666M66.6667 54.166V77.0827" stroke="#333333" stroke-width="4" stroke-linecap="round" stroke-linejoin="round"/>
<path d="M35.4167 54.1663V70.833M35.4167 70.833C37.6268 70.833 39.7464 71.711 41.3092 73.2738C42.872 74.8366 43.75 76.9562 43.75 79.1663V83.333M35.4167 70.833C33.2065 70.833 31.0869 71.711 29.5241 73.2738C27.9613 74.8366 27.0833 76.9562 27.0833 79.1663V83.333M64.5833 27.083V22.9163C64.5833 21.0012 64.2061 19.1049 63.4732 17.3355C62.7404 15.5662 61.6662 13.9586 60.312 12.6044C58.9578 11.2502 57.3501 10.176 55.5808 9.4431C53.8115 8.71022 51.9151 8.33301 50 8.33301C48.0849 8.33301 46.1885 8.71022 44.4192 9.4431C42.6499 10.176 41.0422 11.2502 39.688 12.6044C38.3338 13.9586 37.2596 15.5662 36.5268 17.3355C35.7939 19.1049 35.4167 21.0012 35.4167 22.9163V27.083C35.4167 28.9981 35.7939 30.8945 36.5268 32.6638C37.2596 34.4331 38.3338 36.0408 39.688 37.395C41.0422 38.7492 42.6499 39.8234 44.4192 40.5563C46.1885 41.2891 48.0849 41.6663 50 41.6663C51.9151 41.6663 53.8115 41.2891 55.5808 40.5563C57.3501 39.8234 58.9578 38.7492 60.312 37.395C61.6662 36.0408 62.7404 34.4331 63.4732 32.6638C64.2061 30.8945 64.5833 28.9981 64.5833 27.083Z" stroke="#333333" stroke-width="4" stroke-linecap="round" stroke-linejoin="round"/>
<path d="M69.7917 80.208C69.7917 81.0368 69.4624 81.8317 68.8764 82.4177C68.2903 83.0038 67.4955 83.333 66.6667 83.333C65.8379 83.333 65.043 83.0038 64.457 82.4177C63.8709 81.8317 63.5417 81.0368 63.5417 80.208C63.5417 79.3792 63.8709 78.5843 64.457 77.9983C65.043 77.4122 65.8379 77.083 66.6667 77.083C67.4955 77.083 68.2903 77.4122 68.8764 77.9983C69.4624 78.5843 69.7917 79.3792 69.7917 80.208Z" stroke="#333333" stroke-width="4"/>
</svg>
