<svg width="100" height="100" viewBox="0 0 100 100" fill="none" xmlns="http://www.w3.org/2000/svg">
<path d="M20.8333 39.583C20.8333 39.583 10.1188 43.7497 8.33334 58.333M79.1667 39.583C79.1667 39.583 89.8813 43.7497 91.6667 58.333M37.5 39.583C37.5 39.583 47.5 42.0143 50 54.1663C52.5 42.0143 62.5 39.583 62.5 39.583M41.6667 70.833C41.6667 70.833 32.9167 72.3955 29.1667 83.333M58.3333 70.833C58.3333 70.833 67.0833 72.3955 70.8333 83.333" stroke="#333333" stroke-width="4" stroke-linecap="round"/>
<path d="M50 74.9998C55.753 74.9998 60.4167 70.3361 60.4167 64.5832C60.4167 58.8302 55.753 54.1665 50 54.1665C44.247 54.1665 39.5833 58.8302 39.5833 64.5832C39.5833 70.3361 44.247 74.9998 50 74.9998Z" stroke="#333333" stroke-width="4" stroke-linecap="round" stroke-linejoin="round"/>
<path d="M70.8333 41.6665C77.7369 41.6665 83.3333 36.0701 83.3333 29.1665C83.3333 22.2629 77.7369 16.6665 70.8333 16.6665C63.9298 16.6665 58.3333 22.2629 58.3333 29.1665C58.3333 36.0701 63.9298 41.6665 70.8333 41.6665Z" stroke="#333333" stroke-width="4" stroke-linecap="round" stroke-linejoin="round"/>
<path d="M29.1667 41.6665C36.0702 41.6665 41.6667 36.0701 41.6667 29.1665C41.6667 22.2629 36.0702 16.6665 29.1667 16.6665C22.2631 16.6665 16.6667 22.2629 16.6667 29.1665C16.6667 36.0701 22.2631 41.6665 29.1667 41.6665Z" stroke="#333333" stroke-width="4" stroke-linecap="round" stroke-linejoin="round"/>
</svg>
