<svg width="22" height="22" viewBox="0 0 22 22" fill="none" xmlns="http://www.w3.org/2000/svg">
<path d="M11.2806 12.8484C11.9578 12.9178 12.5851 13.236 13.0413 13.7412C13.4974 14.2465 13.75 14.903 13.7501 15.5837C13.7501 16.9972 12.8884 18.1669 11.7297 18.9387C10.5656 19.7161 9.00725 20.1671 7.33341 20.1671C5.65958 20.1671 4.10125 19.7161 2.93708 18.9387C1.77658 18.1687 0.916748 16.9972 0.916748 15.5837C0.916748 14.8544 1.20648 14.1549 1.7222 13.6392C2.23793 13.1235 2.9374 12.8337 3.66675 12.8337H11.0001L11.2806 12.8484ZM18.3389 12.8337C19.0683 12.8337 19.7677 13.1235 20.2835 13.6392C20.7992 14.1549 21.0889 14.8544 21.0889 15.5837C21.0889 16.8579 20.2969 17.8039 19.2867 18.3851C18.2821 18.9626 16.9676 19.2504 15.5889 19.2504C15.1245 19.2492 14.6716 19.215 14.2304 19.1477C15.0242 18.2091 15.5852 17.0101 15.5852 15.5837C15.5831 14.5912 15.2589 13.6262 14.6612 12.8337H18.3389ZM7.33708 2.74307C7.88671 2.73173 8.43307 2.83023 8.94414 3.03278C9.45521 3.23534 9.92071 3.53788 10.3133 3.92267C10.706 4.30746 11.0178 4.76675 11.2307 5.27363C11.4435 5.78051 11.553 6.32477 11.5527 6.87452C11.5525 7.42427 11.4425 7.96843 11.2292 8.47512C11.016 8.98181 10.7037 9.44083 10.3107 9.82527C9.91774 10.2097 9.45198 10.5118 8.94073 10.7139C8.42948 10.916 7.88303 11.0141 7.33341 11.0022C6.25325 10.9795 5.22499 10.5344 4.46912 9.76242C3.71325 8.99046 3.28993 7.95306 3.28993 6.87265C3.28993 5.79224 3.71325 4.75484 4.46912 3.98287C5.22499 3.2109 6.25325 2.76583 7.33341 2.74307M16.0417 4.57823C16.4631 4.57823 16.8803 4.66122 17.2695 4.82245C17.6588 4.98369 18.0125 5.22001 18.3104 5.51793C18.6083 5.81585 18.8446 6.16954 19.0059 6.55879C19.1671 6.94804 19.2501 7.36524 19.2501 7.78657C19.2501 8.20789 19.1671 8.62509 19.0059 9.01434C18.8446 9.40359 18.6083 9.75728 18.3104 10.0552C18.0125 10.3531 17.6588 10.5894 17.2695 10.7507C16.8803 10.9119 16.4631 10.9949 16.0417 10.9949C15.1908 10.9949 14.3748 10.6569 13.7731 10.0552C13.1714 9.45352 12.8334 8.63747 12.8334 7.78657C12.8334 6.93566 13.1714 6.11961 13.7731 5.51793C14.3748 4.91625 15.1908 4.57823 16.0417 4.57823Z" fill="#004396"/>
</svg>
