<svg width="100" height="100" viewBox="0 0 100 100" fill="none" xmlns="http://www.w3.org/2000/svg">
<path d="M20.8333 39.5834C20.8333 39.5834 10.1188 43.75 8.33334 58.3334M79.1667 39.5834C79.1667 39.5834 89.8813 43.75 91.6667 58.3334M37.5 39.5834C37.5 39.5834 47.5 42.0146 50 54.1667C52.5 42.0146 62.5 39.5834 62.5 39.5834M41.6667 70.8334C41.6667 70.8334 32.9167 72.3959 29.1667 83.3334M58.3333 70.8334C58.3333 70.8334 67.0833 72.3959 70.8333 83.3334" stroke="#004396" stroke-width="4" stroke-linecap="round"/>
<path d="M50 75C55.753 75 60.4167 70.3363 60.4167 64.5834C60.4167 58.8304 55.753 54.1667 50 54.1667C44.247 54.1667 39.5833 58.8304 39.5833 64.5834C39.5833 70.3363 44.247 75 50 75Z" stroke="#004396" stroke-width="4" stroke-linecap="round" stroke-linejoin="round"/>
<path d="M70.8333 41.6667C77.7369 41.6667 83.3333 36.0702 83.3333 29.1667C83.3333 22.2631 77.7369 16.6667 70.8333 16.6667C63.9298 16.6667 58.3333 22.2631 58.3333 29.1667C58.3333 36.0702 63.9298 41.6667 70.8333 41.6667Z" stroke="#004396" stroke-width="4" stroke-linecap="round" stroke-linejoin="round"/>
<path d="M29.1667 41.6667C36.0702 41.6667 41.6667 36.0702 41.6667 29.1667C41.6667 22.2631 36.0702 16.6667 29.1667 16.6667C22.2631 16.6667 16.6667 22.2631 16.6667 29.1667C16.6667 36.0702 22.2631 41.6667 29.1667 41.6667Z" stroke="#004396" stroke-width="4" stroke-linecap="round" stroke-linejoin="round"/>
</svg>
