<svg width="22" height="22" viewBox="0 0 22 22" fill="none" xmlns="http://www.w3.org/2000/svg">
<path d="M11.2803 12.8484C11.9575 12.9178 12.5849 13.236 13.041 13.7412C13.4972 14.2465 13.7498 14.903 13.7498 15.5837C13.7498 16.9972 12.8882 18.1669 11.7295 18.9387C10.5653 19.7161 9.007 20.1671 7.33317 20.1671C5.65934 20.1671 4.101 19.7161 2.93684 18.9387C1.77634 18.1687 0.916504 16.9972 0.916504 15.5837C0.916504 14.8544 1.20624 14.1549 1.72196 13.6392C2.23769 13.1235 2.93716 12.8337 3.6665 12.8337H10.9998L11.2803 12.8484ZM18.3387 12.8337C19.068 12.8337 19.7675 13.1235 20.2832 13.6392C20.7989 14.1549 21.0887 14.8544 21.0887 15.5837C21.0887 16.8579 20.2967 17.8039 19.2865 18.3851C18.2818 18.9626 16.9673 19.2504 15.5887 19.2504C15.1242 19.2492 14.6714 19.215 14.2302 19.1477C15.024 18.2091 15.585 17.0101 15.585 15.5837C15.5829 14.5912 15.2586 13.6262 14.661 12.8337H18.3387ZM7.33684 2.74307C7.88647 2.73173 8.43283 2.83023 8.9439 3.03278C9.45497 3.23534 9.92046 3.53788 10.3131 3.92267C10.7057 4.30746 11.0176 4.76675 11.2304 5.27363C11.4432 5.78051 11.5527 6.32477 11.5525 6.87452C11.5523 7.42427 11.4423 7.96843 11.229 8.47512C11.0157 8.98181 10.7034 9.44083 10.3105 9.82527C9.9175 10.2097 9.45174 10.5118 8.94049 10.7139C8.42924 10.916 7.88279 11.0141 7.33317 11.0022C6.253 10.9795 5.22475 10.5344 4.46888 9.76242C3.713 8.99046 3.28969 7.95306 3.28969 6.87265C3.28969 5.79224 3.713 4.75484 4.46888 3.98287C5.22475 3.2109 6.253 2.76583 7.33317 2.74307M16.0415 4.57823C16.4628 4.57823 16.88 4.66122 17.2693 4.82245C17.6585 4.98369 18.0122 5.22001 18.3101 5.51793C18.6081 5.81585 18.8444 6.16954 19.0056 6.55879C19.1668 6.94804 19.2498 7.36524 19.2498 7.78657C19.2498 8.20789 19.1668 8.62509 19.0056 9.01434C18.8444 9.40359 18.6081 9.75728 18.3101 10.0552C18.0122 10.3531 17.6585 10.5894 17.2693 10.7507C16.88 10.9119 16.4628 10.9949 16.0415 10.9949C15.1906 10.9949 14.3745 10.6569 13.7729 10.0552C13.1712 9.45352 12.8332 8.63747 12.8332 7.78657C12.8332 6.93566 13.1712 6.11961 13.7729 5.51793C14.3745 4.91625 15.1906 4.57823 16.0415 4.57823Z" fill="#8FB8EA"/>
</svg>
