<svg width="100" height="100" viewBox="0 0 100 100" fill="none" xmlns="http://www.w3.org/2000/svg">
<path fill-rule="evenodd" clip-rule="evenodd" d="M48.8063 43.3649C50.8813 40.5607 53.9584 38.542 57.6729 38.542C61.5 38.542 64.4417 40.5378 66.5271 43.3399C68.6146 40.5378 71.5563 38.542 75.3813 38.542C77.5813 38.542 79.5271 39.142 81.1771 40.2087C82.4352 41.0362 83.5211 42.0996 84.375 43.3399C84.6922 43.7924 84.8166 44.3524 84.7209 44.8967C84.6251 45.4409 84.3171 45.9248 83.8646 46.242C83.4121 46.5591 82.8521 46.6835 82.3079 46.5878C81.7636 46.4921 81.2797 46.1841 80.9625 45.7316C79.4542 43.5795 77.5375 42.7087 75.3813 42.7087C72.5084 42.7087 70.0896 44.6816 68.4188 48.3003L66.5271 52.3941L64.6375 48.3003C62.9646 44.6816 60.5479 42.7087 57.6729 42.7087C55.5896 42.7087 53.65 43.8253 52.1563 45.842C50.6563 47.8691 49.7229 50.6837 49.7229 53.6524C49.7229 55.2566 49.9646 56.7982 50.3938 58.2753C50.6063 58.9975 50.8611 59.7059 51.1584 60.4003C53.2646 65.3316 57.8938 69.4253 61.6959 72.3837C62.1182 72.7275 62.3891 73.223 62.4506 73.7642C62.512 74.3053 62.3592 74.849 62.0247 75.2788C61.6902 75.7086 61.2008 75.9903 60.6611 76.0636C60.1215 76.137 59.5746 75.9961 59.1375 75.6712C58.4646 75.1503 57.7417 74.5732 56.9959 73.9482C53.4959 71.017 49.4417 66.9857 47.3271 62.0378C46.9642 61.1921 46.6525 60.3252 46.3938 59.442C45.8408 57.5611 45.5588 55.6109 45.5563 53.6503C45.5563 49.8587 46.7375 46.1628 48.8063 43.3649Z" fill="#004396"/>
<path d="M46.2375 28.7502L49.7229 35.4168L53.7625 28.7502C56.8458 22.2752 61.2896 18.7502 66.6021 18.7502C70.4625 18.7502 74.0333 20.7543 76.7729 24.3502C79.5292 27.9689 81.25 32.996 81.25 38.2897C81.25 38.9342 81.2257 39.5738 81.1771 40.2085C82.4352 41.0361 83.5211 42.0994 84.375 43.3397C84.6063 43.6689 84.7292 44.0439 84.75 44.4189C85.2396 42.3877 85.4167 40.6835 85.4167 38.2897C85.4167 25.9918 77.4771 14.5835 66.6021 14.5835C60.6438 14.5835 55.8979 17.7752 52.4625 22.6939C51.5262 24.0456 50.7026 25.4719 50 26.9585C49.2975 25.4712 48.4739 24.0441 47.5375 22.6918C44.1021 17.7752 39.3583 14.5835 33.3958 14.5835C22.5229 14.5835 14.5833 25.9897 14.5833 38.2918C14.5833 41.596 15.0958 44.7585 16 47.7647C16.4445 49.237 16.9743 50.6696 17.5896 52.0627C26.1458 71.4897 50 83.3335 50 83.3335C50 83.3335 55.1167 80.6293 61.4604 75.8314C61.1013 76.039 60.6883 76.1346 60.2745 76.106C59.8606 76.0774 59.4647 75.926 59.1375 75.671C58.4646 75.1502 57.7417 74.5731 56.9958 73.9481C55.65 74.9147 54.3875 75.771 53.2583 76.5085C52.1689 77.2194 51.0645 77.9071 49.9458 78.571C49.4611 78.2988 48.9035 77.9752 48.2729 77.6002C45.2497 75.7946 42.3331 73.8163 39.5375 71.6752C32.7313 66.4606 25.2667 59.1606 21.4021 50.3835C20.854 49.1412 20.3823 47.8666 19.9896 46.5668C19.1749 43.883 18.7573 41.0945 18.75 38.2897C18.75 32.9939 20.4708 27.9668 23.2292 24.3502C25.9646 20.7543 29.5354 18.7502 33.3958 18.7502C38.7083 18.7502 43.1542 22.2752 46.2375 28.7502ZM82.2 52.2939C82.5102 52.2983 82.8164 52.3637 83.1013 52.4865C83.3861 52.6093 83.644 52.787 83.8601 53.0095C84.0762 53.232 84.2464 53.4949 84.3608 53.7832C84.4753 54.0715 84.5318 54.3796 84.5271 54.6897C84.4229 62.4189 80.6833 67.6793 77.05 70.9397C75.538 72.2914 73.879 73.4689 72.1042 74.4502C71.4101 74.8334 70.6967 75.1804 69.9667 75.4897C69.9056 75.512 69.8576 75.5314 69.8229 75.5481L69.7792 75.5647L69.7625 75.571L69.7563 75.5731C69.1763 75.7697 68.5427 75.7335 67.989 75.472C67.4353 75.2106 67.0047 74.7443 66.788 74.1716C66.5713 73.5989 66.5855 72.9644 66.8276 72.4019C67.0696 71.8394 67.5206 71.3929 68.0854 71.1564L68.0958 71.1522L68.1708 71.121L68.5125 70.9752C70.4707 70.0629 72.2845 68.8682 73.8958 67.4293C76.8396 64.7835 79.7229 60.6897 79.8063 54.6231C79.8103 54.3129 79.8755 54.0066 79.998 53.7216C80.1206 53.4367 80.2981 53.1787 80.5204 52.9624C80.7427 52.746 81.0055 52.5757 81.2937 52.461C81.5819 52.3463 81.8899 52.2895 82.2 52.2939Z" fill="#004396"/>
</svg>
