<svg width="100" height="100" viewBox="0 0 100 100" fill="none" xmlns="http://www.w3.org/2000/svg">
<path fill-rule="evenodd" clip-rule="evenodd" d="M48.8063 43.3639C50.8813 40.5598 53.9584 38.541 57.6729 38.541C61.5 38.541 64.4417 40.5368 66.5271 43.3389C68.6146 40.5368 71.5563 38.541 75.3813 38.541C77.5813 38.541 79.5271 39.141 81.1771 40.2077C82.4352 41.0353 83.5211 42.0986 84.375 43.3389C84.6922 43.7915 84.8166 44.3514 84.7209 44.8957C84.6251 45.4399 84.3171 45.9239 83.8646 46.241C83.4121 46.5582 82.8521 46.6826 82.3079 46.5868C81.7636 46.4911 81.2797 46.1831 80.9625 45.7306C79.4542 43.5785 77.5375 42.7077 75.3813 42.7077C72.5084 42.7077 70.0896 44.6806 68.4188 48.2993L66.5271 52.3931L64.6375 48.2993C62.9646 44.6806 60.5479 42.7077 57.6729 42.7077C55.5896 42.7077 53.65 43.8243 52.1563 45.841C50.6563 47.8681 49.7229 50.6827 49.7229 53.6514C49.7229 55.2556 49.9646 56.7973 50.3938 58.2743C50.6063 58.9966 50.8611 59.7049 51.1584 60.3993C53.2646 65.3306 57.8938 69.4243 61.6959 72.3827C62.1182 72.7265 62.3891 73.2221 62.4506 73.7632C62.512 74.3043 62.3592 74.848 62.0247 75.2778C61.6902 75.7076 61.2008 75.9893 60.6611 76.0627C60.1215 76.136 59.5746 75.9951 59.1375 75.6702C58.4646 75.1493 57.7417 74.5723 56.9959 73.9473C53.4959 71.016 49.4417 66.9848 47.3271 62.0368C46.9642 61.1911 46.6525 60.3242 46.3938 59.441C45.8408 57.5601 45.5588 55.6099 45.5563 53.6494C45.5563 49.8577 46.7375 46.1618 48.8063 43.3639Z" fill="#333333"/>
<path d="M46.2375 28.7497L49.7229 35.4163L53.7625 28.7497C56.8458 22.2747 61.2896 18.7497 66.6021 18.7497C70.4625 18.7497 74.0333 20.7538 76.7729 24.3497C79.5292 27.9684 81.25 32.9955 81.25 38.2893C81.25 38.9337 81.2257 39.5733 81.1771 40.208C82.4352 41.0356 83.5211 42.0989 84.375 43.3393C84.6063 43.6684 84.7292 44.0434 84.75 44.4184C85.2396 42.3872 85.4167 40.683 85.4167 38.2893C85.4167 25.9913 77.4771 14.583 66.6021 14.583C60.6438 14.583 55.8979 17.7747 52.4625 22.6934C51.5262 24.0451 50.7026 25.4714 50 26.958C49.2975 25.4707 48.4739 24.0436 47.5375 22.6913C44.1021 17.7747 39.3583 14.583 33.3958 14.583C22.5229 14.583 14.5833 25.9893 14.5833 38.2913C14.5833 41.5955 15.0958 44.758 16 47.7643C16.4445 49.2365 16.9743 50.6691 17.5896 52.0622C26.1458 71.4893 50 83.333 50 83.333C50 83.333 55.1167 80.6288 61.4604 75.8309C61.1013 76.0385 60.6883 76.1341 60.2745 76.1055C59.8606 76.077 59.4647 75.9255 59.1375 75.6705C58.4646 75.1497 57.7417 74.5726 56.9958 73.9476C55.65 74.9143 54.3875 75.7705 53.2583 76.508C52.1689 77.2189 51.0645 77.9066 49.9458 78.5705C49.4611 78.2983 48.9035 77.9747 48.2729 77.5997C45.2497 75.7941 42.3331 73.8158 39.5375 71.6747C32.7313 66.4601 25.2667 59.1601 21.4021 50.383C20.854 49.1407 20.3823 47.8661 19.9896 46.5663C19.1749 43.8825 18.7573 41.094 18.75 38.2893C18.75 32.9934 20.4708 27.9663 23.2292 24.3497C25.9646 20.7538 29.5354 18.7497 33.3958 18.7497C38.7083 18.7497 43.1542 22.2747 46.2375 28.7497ZM82.2 52.2934C82.5102 52.2978 82.8164 52.3632 83.1013 52.486C83.3861 52.6088 83.644 52.7865 83.8601 53.009C84.0762 53.2315 84.2464 53.4944 84.3608 53.7828C84.4753 54.0711 84.5318 54.3791 84.5271 54.6893C84.4229 62.4184 80.6833 67.6788 77.05 70.9393C75.538 72.2909 73.879 73.4684 72.1042 74.4497C71.4101 74.8329 70.6967 75.1799 69.9667 75.4893C69.9056 75.5115 69.8576 75.5309 69.8229 75.5476L69.7792 75.5643L69.7625 75.5705L69.7563 75.5726C69.1763 75.7692 68.5427 75.733 67.989 75.4715C67.4353 75.2101 67.0047 74.7438 66.788 74.1711C66.5713 73.5984 66.5855 72.9639 66.8276 72.4014C67.0696 71.8389 67.5206 71.3924 68.0854 71.1559L68.0958 71.1518L68.1708 71.1205L68.5125 70.9747C70.4707 70.0624 72.2845 68.8677 73.8958 67.4288C76.8396 64.783 79.7229 60.6893 79.8063 54.6226C79.8103 54.3124 79.8755 54.0061 79.998 53.7212C80.1206 53.4362 80.2981 53.1782 80.5204 52.9619C80.7427 52.7456 81.0055 52.5752 81.2937 52.4605C81.5819 52.3458 81.8899 52.289 82.2 52.2934Z" fill="#333333"/>
</svg>
