<svg width="100" height="100" viewBox="0 0 100 100" fill="none" xmlns="http://www.w3.org/2000/svg">
<path d="M83.3334 91.6668V79.1668C83.3334 67.3834 83.3334 61.4876 79.6709 57.8293C76.0125 54.1626 70.1167 54.1626 58.3334 54.1626H41.6667C29.8834 54.1626 23.9875 54.1626 20.3292 57.8293C16.6667 61.4876 16.6667 67.3834 16.6667 79.1626C16.6667 83.0501 16.6667 84.9918 17.3 86.5209C17.7188 87.5327 18.3329 88.452 19.1072 89.2263C19.8815 90.0005 20.8008 90.6146 21.8125 91.0334C23.3417 91.6668 25.2834 91.6668 29.1667 91.6668V56.2501M39.5834 54.1668L52.0834 91.6668" stroke="#004396" stroke-width="4" stroke-linecap="round" stroke-linejoin="round"/>
<path d="M50 79.1668H60.4167C62.0743 79.1668 63.664 79.8253 64.8361 80.9974C66.0082 82.1695 66.6667 83.7592 66.6667 85.4168C66.6667 87.0744 66.0082 88.6641 64.8361 89.8362C63.664 91.0083 62.0743 91.6668 60.4167 91.6668H52.0834M64.5834 27.0835V22.9168C64.5834 21.0017 64.2061 19.1054 63.4733 17.336C62.7404 15.5667 61.6662 13.959 60.312 12.6049C58.9578 11.2507 57.3501 10.1765 55.5808 9.44359C53.8115 8.71071 51.9151 8.3335 50 8.3335C48.0849 8.3335 46.1886 8.71071 44.4192 9.44359C42.6499 10.1765 41.0422 11.2507 39.688 12.6049C38.3339 13.959 37.2597 15.5667 36.5268 17.336C35.7939 19.1054 35.4167 21.0017 35.4167 22.9168V27.0835C35.4167 28.9986 35.7939 30.895 36.5268 32.6643C37.2597 34.4336 38.3339 36.0413 39.688 37.3955C41.0422 38.7497 42.6499 39.8239 44.4192 40.5567C46.1886 41.2896 48.0849 41.6668 50 41.6668C51.9151 41.6668 53.8115 41.2896 55.5808 40.5567C57.3501 39.8239 58.9578 38.7497 60.312 37.3955C61.6662 36.0413 62.7404 34.4336 63.4733 32.6643C64.2061 30.895 64.5834 28.9986 64.5834 27.0835Z" stroke="#004396" stroke-width="4" stroke-linecap="round" stroke-linejoin="round"/>
</svg>
