<svg width="22" height="22" viewBox="0 0 22 22" fill="none" xmlns="http://www.w3.org/2000/svg">
<path d="M7.33323 5.50065C7.33323 3.47482 8.97406 1.83398 10.9999 1.83398C13.0257 1.83398 14.6666 3.47482 14.6666 5.50065C14.6666 7.52648 13.0257 9.16732 10.9999 9.16732C8.97406 9.16732 7.33323 7.52648 7.33323 5.50065ZM15.5832 20.1673H16.4999C17.5082 20.1673 18.3332 19.3423 18.3332 18.334V13.9523C18.3332 12.9257 17.7741 11.9815 16.8574 11.514C16.4632 11.3123 16.0416 11.1198 15.5832 10.9457V20.1673ZM11.3116 15.584L13.7499 10.3865C12.8974 10.194 11.9807 10.084 10.9999 10.084C8.68073 10.084 6.6824 10.7257 5.1424 11.514C4.69512 11.7444 4.32042 12.0942 4.0599 12.5246C3.79939 12.955 3.66324 13.4492 3.66656 13.9523V20.1673H5.81156C5.6099 19.7548 5.4999 19.2873 5.4999 18.7923C5.4999 17.0232 6.93906 15.584 8.70823 15.584H11.3116ZM9.16656 20.1673L10.4591 17.4173H8.70823C7.9474 17.4173 7.33323 18.0315 7.33323 18.7923C7.33323 19.5532 7.9474 20.1673 8.70823 20.1673H9.16656Z" fill="#8FB8EA"/>
</svg>
