<svg width="100" height="100" viewBox="0 0 100 100" fill="none" xmlns="http://www.w3.org/2000/svg">
<path d="M83.3334 91.6666V79.1666C83.3334 67.3833 83.3334 61.4875 79.6709 57.8291C76.0125 54.1625 70.1167 54.1625 58.3334 54.1625H41.6667C29.8834 54.1625 23.9875 54.1625 20.3292 57.8291C16.6667 61.4875 16.6667 67.3833 16.6667 79.1625C16.6667 83.05 16.6667 84.9916 17.3 86.5208C17.7188 87.5326 18.3329 88.4518 19.1072 89.2261C19.8815 90.0004 20.8008 90.6145 21.8125 91.0333C23.3417 91.6666 25.2834 91.6666 29.1667 91.6666V56.25M39.5834 54.1666L52.0834 91.6666" stroke="#333333" stroke-width="4" stroke-linecap="round" stroke-linejoin="round"/>
<path d="M50 79.1666H60.4167C62.0743 79.1666 63.664 79.8251 64.8361 80.9972C66.0082 82.1693 66.6667 83.759 66.6667 85.4166C66.6667 87.0742 66.0082 88.664 64.8361 89.8361C63.664 91.0082 62.0743 91.6666 60.4167 91.6666H52.0834M64.5834 27.0833V22.9166C64.5834 21.0015 64.2061 19.1052 63.4733 17.3358C62.7404 15.5665 61.6662 13.9589 60.312 12.6047C58.9578 11.2505 57.3501 10.1763 55.5808 9.4434C53.8115 8.71052 51.9151 8.33331 50 8.33331C48.0849 8.33331 46.1886 8.71052 44.4192 9.4434C42.6499 10.1763 41.0422 11.2505 39.688 12.6047C38.3339 13.9589 37.2597 15.5665 36.5268 17.3358C35.7939 19.1052 35.4167 21.0015 35.4167 22.9166V27.0833C35.4167 28.9984 35.7939 30.8948 36.5268 32.6641C37.2597 34.4334 38.3339 36.0411 39.688 37.3953C41.0422 38.7495 42.6499 39.8237 44.4192 40.5566C46.1886 41.2894 48.0849 41.6666 50 41.6666C51.9151 41.6666 53.8115 41.2894 55.5808 40.5566C57.3501 39.8237 58.9578 38.7495 60.312 37.3953C61.6662 36.0411 62.7404 34.4334 63.4733 32.6641C64.2061 30.8948 64.5834 28.9984 64.5834 27.0833Z" stroke="#333333" stroke-width="4" stroke-linecap="round" stroke-linejoin="round"/>
</svg>
