<svg width="60" height="60" viewBox="0 0 60 60" fill="none" xmlns="http://www.w3.org/2000/svg">
<circle cx="30" cy="30" r="30" fill="#EC1D24" fill-opacity="0.12"/>
<path fill-rule="evenodd" clip-rule="evenodd" d="M30.4998 15.9166C28.8119 15.9163 27.1599 16.4041 25.743 17.3214C24.326 18.2387 23.2046 19.5462 22.514 21.0864C22.4158 21.3072 22.3151 21.527 22.2121 21.7456L22.183 21.747C22.0896 21.75 21.9628 21.75 21.7498 21.75C20.2027 21.75 18.719 22.3645 17.625 23.4585C16.5311 24.5525 15.9165 26.0362 15.9165 27.5833C15.9165 29.1304 16.5311 30.6141 17.625 31.7081C18.719 32.802 20.2027 33.4166 21.7498 33.4166H22.0007L24.9173 30.5H21.7498C20.9763 30.5 20.2344 30.1927 19.6874 29.6457C19.1405 29.0987 18.8332 28.3568 18.8332 27.5833C18.8332 26.8097 19.1405 26.0679 19.6874 25.5209C20.2344 24.9739 20.9763 24.6666 21.7498 24.6666H21.8432C22.1465 24.6666 22.4994 24.6681 22.7911 24.6083C23.1542 24.5462 23.5012 24.4123 23.8119 24.2145C24.1634 23.987 24.4055 23.7041 24.5892 23.446C24.7018 23.2797 24.7999 23.1041 24.8823 22.921C24.9601 22.7586 25.0554 22.5506 25.1682 22.2968L25.174 22.2823C25.634 21.2544 26.3816 20.3815 27.3266 19.7691C28.2717 19.1567 29.3737 18.8308 30.4998 18.8308C31.626 18.8308 32.728 19.1567 33.673 19.7691C34.6181 20.3815 35.3657 21.2544 35.8257 22.2823L35.833 22.2968C35.9448 22.5496 36.0396 22.7577 36.1173 22.921C36.1844 23.0625 36.2836 23.2681 36.4105 23.446C36.5942 23.7027 36.8348 23.987 37.1878 24.216C37.5407 24.4435 37.898 24.547 38.2086 24.6098C38.5003 24.6681 38.8532 24.6681 39.1565 24.6681L39.2498 24.6666C40.0234 24.6666 40.7652 24.9739 41.3122 25.5209C41.8592 26.0679 42.1665 26.8097 42.1665 27.5833C42.1665 28.3568 41.8592 29.0987 41.3122 29.6457C40.7652 30.1927 40.0234 30.5 39.2498 30.5H36.0823L38.999 33.4166H39.2498C40.7969 33.4166 42.2807 32.802 43.3746 31.7081C44.4686 30.6141 45.0832 29.1304 45.0832 27.5833C45.0832 26.0362 44.4686 24.5525 43.3746 23.4585C42.2807 22.3645 40.7969 21.75 39.2498 21.75C39.0369 21.75 38.91 21.75 38.8167 21.747H38.7875L38.7511 21.6698C38.6608 21.4761 38.5724 21.2817 38.4857 21.0864C37.795 19.5462 36.6736 18.2387 35.2567 17.3214C33.8398 16.4041 32.1878 15.9163 30.4998 15.9166Z" fill="#EC1D24"/>
<path d="M30.5001 30.4999L29.4691 29.4689L30.5001 28.4379L31.5312 29.4689L30.5001 30.4999ZM31.9585 43.6249C31.9585 44.0117 31.8048 44.3827 31.5313 44.6561C31.2578 44.9296 30.8869 45.0833 30.5001 45.0833C30.1133 45.0833 29.7424 44.9296 29.4689 44.6561C29.1954 44.3827 29.0418 44.0117 29.0418 43.6249H31.9585ZM23.6357 35.3022L29.4691 29.4689L31.5312 31.531L25.6978 37.3643L23.6357 35.3022ZM31.5312 29.4689L37.3645 35.3022L35.3024 37.3643L29.4691 31.531L31.5312 29.4689ZM31.9585 30.4999V43.6249H29.0418V30.4999H31.9585Z" fill="#EC1D24"/>
</svg>
